<svg width="28" height="28" viewBox="0 0 28 28" fill="none" xmlns="http://www.w3.org/2000/svg">
  <rect width="28" height="28" rx="8" fill="#10B981"/>
  <path d="M14 6C9.58 6 6 9.58 6 14C6 15.85 6.63 17.55 7.69 18.91L6.5 22L9.68 20.84C10.97 21.72 12.42 22 14 22C18.42 22 22 18.42 22 14C22 9.58 18.42 6 14 6Z" fill="white"/>
  <path d="M18.5 16.18C18.28 16.07 17.18 15.53 16.98 15.46C16.78 15.39 16.64 15.35 16.49 15.57C16.34 15.79 15.92 16.29 15.79 16.43C15.67 16.57 15.54 16.59 15.32 16.48C14.12 15.88 13.33 15.41 12.53 14.03C12.33 13.69 12.73 13.71 13.1 12.97C13.17 12.83 13.13 12.71 13.08 12.6C13.03 12.49 12.59 11.39 12.41 10.95C12.24 10.52 12.06 10.58 11.93 10.57C11.81 10.56 11.66 10.56 11.52 10.56C11.38 10.56 11.14 10.61 10.94 10.83C10.74 11.05 10.17 11.59 10.17 12.69C10.17 13.79 10.96 14.85 11.07 14.99C11.18 15.13 12.58 17.31 14.72 18.28C16.19 18.94 16.86 18.99 17.71 18.87C18.23 18.79 19.12 18.3 19.3 17.76C19.48 17.22 19.48 16.78 19.43 16.69C19.38 16.6 19.23 16.55 19.01 16.44L18.5 16.18Z" fill="#10B981"/>
</svg>
